{
  "accessors": [
    {
      "bufferView": 2,
      "componentType": 5126,
      "count": 9202,
      "max": [
        -0.9844638705253601,
        0.6090592741966248,
        1.8516387939453125
      ],
      "min": [
        -2.4531538486480713,
        -0.5983221530914307,
        -0.7864174246788025
      ],
      "type": "VEC3"
    },
    {
      "bufferView": 2,
      "byteOffset": 110424,
      "componentType": 5126,
      "count": 9202,
      "max": [
        0.9999980926513672,
        1.0,
        0.9993458986282349
      ],
      "min": [
        -0.9999967217445374,
        -1.0,
        -1.0
      ],
      "type": "VEC3"
    },
    {
      "bufferView": 1,
      "componentType": 5126,
      "count": 9202,
      "max": [
        0.9910750985145569,
        0.9878728985786438
      ],
      "min": [
        0.008924943394958973,
        0.008924943394958973
      ],
      "type": "VEC2"
    },
    {
      "bufferView": 0,
      "componentType": 5125,
      "count": 46434,
      "type": "SCALAR"
    },
    {
      "bufferView": 2,
      "byteOffset": 220848,
      "componentType": 5126,
      "count": 9202,
      "max": [
        0.7112294435501099,
        0.6090595722198486,
        1.8516387939453125
      ],
      "min": [
        -0.7574604749679565,
        -0.5983218550682068,
        -0.7864174246788025
      ],
      "type": "VEC3"
    },
    {
      "bufferView": 2,
      "byteOffset": 331272,
      "componentType": 5126,
      "count": 9202,
      "max": [
        0.9999980926513672,
        1.0,
        0.9993459582328796
      ],
      "min": [
        -0.9999967217445374,
        -1.0,
        -1.0
      ],
      "type": "VEC3"
    },
    {
      "bufferView": 1,
      "byteOffset": 73616,
      "componentType": 5126,
      "count": 9202,
      "max": [
        0.9910750985145569,
        0.9878728985786438
      ],
      "min": [
        0.008924943394958973,
        0.008924943394958973
      ],
      "type": "VEC2"
    },
    {
      "bufferView": 0,
      "byteOffset": 185736,
      "componentType": 5125,
      "count": 46434,
      "type": "SCALAR"
    },
    {
      "bufferView": 2,
      "byteOffset": 441696,
      "componentType": 5126,
      "count": 9202,
      "max": [
        2.400090217590332,
        0.6090598106384277,
        1.8516387939453125
      ],
      "min": [
        0.9314001798629761,
        -0.5983216166496277,
        -0.7864174246788025
      ],
      "type": "VEC3"
    },
    {
      "bufferView": 2,
      "byteOffset": 552120,
      "componentType": 5126,
      "count": 9202,
      "max": [
        0.9999980926513672,
        1.0,
        0.9993453621864319
      ],
      "min": [
        -0.9999967217445374,
        -1.0,
        -1.0
      ],
      "type": "VEC3"
    },
    {
      "bufferView": 1,
      "byteOffset": 147232,
      "componentType": 5126,
      "count": 9202,
      "max": [
        0.9910750985145569,
        0.9878728985786438
      ],
      "min": [
        0.008924943394958973,
        0.008924943394958973
      ],
      "type": "VEC2"
    },
    {
      "bufferView": 0,
      "byteOffset": 371472,
      "componentType": 5125,
      "count": 46434,
      "type": "SCALAR"
    }
  ],
  "asset": {
    "extras": {
      "author": "C.K (https://sketchfab.com/buicongkhai92)",
      "license": "CC-BY-4.0 (http://creativecommons.org/licenses/by/4.0/)",
      "source": "https://sketchfab.com/3d-models/squid-game-man-ce9f3c8d3bcb4049bc5090925a578446",
      "title": "Squid Game Man"
    },
    "generator": "Sketchfab-12.65.0",
    "version": "2.0"
  },
  "bufferViews": [
    {
      "buffer": 0,
      "byteLength": 557208,
      "name": "floatBufferViews",
      "target": 34963
    },
    {
      "buffer": 0,
      "byteLength": 220848,
      "byteOffset": 557208,
      "byteStride": 8,
      "name": "floatBufferViews",
      "target": 34962
    },
    {
      "buffer": 0,
      "byteLength": 662544,
      "byteOffset": 778056,
      "byteStride": 12,
      "name": "floatBufferViews",
      "target": 34962
    }
  ],
  "buffers": [
    {
      "byteLength": 1440600,
      "uri": "scene.bin"
    }
  ],
  "images": [
    {
      "uri": "textures/Material.003_baseColor.png"
    },
    {
      "uri": "textures/Material.001_baseColor.png"
    },
    {
      "uri": "textures/Material.002_baseColor.png"
    }
  ],
  "materials": [
    {
      "doubleSided": true,
      "emissiveFactor": [
        0.32,
        0.32,
        0.32
      ],
      "emissiveTexture": {
        "index": 0
      },
      "name": "Material.003",
      "pbrMetallicRoughness": {
        "baseColorTexture": {
          "index": 0
        },
        "metallicFactor": 0.5,
        "roughnessFactor": 0.6
      }
    },
    {
      "doubleSided": true,
      "emissiveFactor": [
        0.32,
        0.32,
        0.32
      ],
      "emissiveTexture": {
        "index": 1
      },
      "name": "Material.001",
      "pbrMetallicRoughness": {
        "baseColorTexture": {
          "index": 1
        },
        "metallicFactor": 0.5,
        "roughnessFactor": 0.6
      }
    },
    {
      "doubleSided": true,
      "emissiveFactor": [
        0.321109145188455,
        0.321109145188455,
        0.321109145188455
      ],
      "emissiveTexture": {
        "index": 2
      },
      "name": "Material.002",
      "pbrMetallicRoughness": {
        "baseColorTexture": {
          "index": 2
        },
        "metallicFactor": 0.5,
        "roughnessFactor": 0.6
      }
    }
  ],
  "meshes": [
    {
      "name": "Cube.007_Material.003_0",
      "primitives": [
        {
          "attributes": {
            "NORMAL": 1,
            "POSITION": 0,
            "TEXCOORD_0": 2
          },
          "indices": 3,
          "material": 0,
          "mode": 4
        }
      ]
    },
    {
      "name": "Cube.007_Material.001_0",
      "primitives": [
        {
          "attributes": {
            "NORMAL": 5,
            "POSITION": 4,
            "TEXCOORD_0": 6
          },
          "indices": 7,
          "material": 1,
          "mode": 4
        }
      ]
    },
    {
      "name": "Cube.007_Material.002_0",
      "primitives": [
        {
          "attributes": {
            "NORMAL": 9,
            "POSITION": 8,
            "TEXCOORD_0": 10
          },
          "indices": 11,
          "material": 2,
          "mode": 4
        }
      ]
    }
  ],
  "nodes": [
    {
      "children": [
        1
      ],
      "matrix": [
        2.220446049250313e-16,
        -4.440892098500626e-16,
        1.0,
        0.0,
        -1.0,
        6.123234262925834e-17,
        2.220446049250313e-16,
        0.0,
        -6.123234262925839e-17,
        -1.0,
        -4.440892098500626e-16,
        0.0,
        0.021161457523703575,
        -1.065220832824707,
        -0.02116141468286538,
        1.0
      ],
      "name": "Sketchfab_model"
    },
    {
      "children": [
        2
      ],
      "matrix": [
        0.009999999776482582,
        0.0,
        0.0,
        0.0,
        0.0,
        -0.009999999776482582,
        0.0,
        0.0,
        0.0,
        0.0,
        -0.009999999776482582,
        0.0,
        0.0,
        0.0,
        0.0,
        1.0
      ],
      "name": "squid3.fbx"
    },
    {
      "children": [
        3
      ],
      "name": "RootNode"
    },
    {
      "children": [
        4,
        5,
        6
      ],
      "matrix": [
        3.139164788112936e-05,
        99.99999999999507,
        0.0,
        0.0,
        -99.99999999999507,
        3.139164788112936e-05,
        0.0,
        0.0,
        0.0,
        0.0,
        100.0,
        0.0,
        0.0,
        0.0,
        0.0,
        1.0
      ],
      "name": "Cube.007"
    },
    {
      "mesh": 0,
      "name": "Cube.007_Material.003_0"
    },
    {
      "mesh": 1,
      "name": "Cube.007_Material.001_0"
    },
    {
      "mesh": 2,
      "name": "Cube.007_Material.002_0"
    }
  ],
  "samplers": [
    {
      "magFilter": 9729,
      "minFilter": 9987,
      "wrapS": 10497,
      "wrapT": 10497
    }
  ],
  "scene": 0,
  "scenes": [
    {
      "name": "Sketchfab_Scene",
      "nodes": [
        0
      ]
    }
  ],
  "textures": [
    {
      "sampler": 0,
      "source": 0
    },
    {
      "sampler": 0,
      "source": 1
    },
    {
      "sampler": 0,
      "source": 2
    }
  ]
}
